<?xml version="1.0" encoding="UTF-8"?><svg xmlns="http://www.w3.org/2000/svg" viewBox="0 0 82.07 131.72"><g id="a"/><g id="b"><g id="c"><g id="d"><g><path d="M42.57,0c12.83,21.35,25.65,42.7,38.48,64.06l-.16,.2c-2.53-1.11-5.06-2.22-7.6-3.33-9.97-4.37-19.94-8.75-29.93-13.11-.69-.3-1.09-.57-1.09-1.45,.03-15.26,.02-30.51,.02-45.77,0-.17,.02-.33,.03-.5l.24-.1Z"/><path d="M39.69,.13V1.13c0,15.03,0,30.07,.01,45.1,0,.76-.14,1.21-.93,1.55-12.14,5.29-24.27,10.61-36.4,15.93-.22,.1-.45,.17-1.04,.38C14.15,42.55,26.78,21.3,39.42,.05l.27,.07Z"/><path d="M42.33,90.89V50.21c13.23,5.8,26.34,11.54,39.74,17.41-13.33,7.81-26.43,15.48-39.74,23.27Z"/><path d="M39.61,90.84c-13.23-7.75-26.28-15.41-39.61-23.22l39.61-17.37v40.58Z"/><path d="M81.36,76.58c-12.93,18.3-25.85,36.59-38.78,54.89l-.29-.1v-.97c0-10.05,0-20.1,0-30.15,0-.68,.09-1.16,.78-1.56,12.56-7.32,25.1-14.68,37.64-22.03,.15-.09,.3-.15,.45-.23l.2,.15Z"/><path d="M39.61,131.72C26.5,113.16,13.58,94.88,.45,76.29c.59,.27,.88,.38,1.14,.53,12.41,7.26,24.81,14.52,37.2,21.81,.42,.25,.86,.88,.86,1.34,.05,10.27,.04,20.54,.04,30.81,0,.19-.03,.39-.08,.94Z"/></g></g></g></g></svg>