<?xml version="1.0" encoding="UTF-8"?><svg xmlns="http://www.w3.org/2000/svg" viewBox="0 0 171.76 186.6"><g id="a"/><g id="b"><g id="c"><g id="d"><g><path d="M137.85,118.19c4.41,18.96,1,35.95-11.86,50.47-10.19,11.51-23.22,17.59-38.65,17.92-17.98,.38-32.78-6.55-43.88-20.64-11.13-14.12-13.75-30.23-9.59-47.75-4.61,0-9.01,0-13.4,0-2.81,0-5.65,.18-8.43-.1C4.97,117.38,.03,111.76,.02,104.54-.01,87.22,0,69.9,0,52.58c0-8.63,0-17.26,0-25.89,.01-8.69,5.58-13.96,14.28-14.3,8.92-.36,17.83-1.22,26.73-2.01,8.33-.74,16.64-1.67,24.97-2.52,9.72-.99,19.44-1.99,29.16-2.96,9.59-.96,19.19-1.88,28.79-2.83,6.35-.63,12.72-1.15,19.05-1.96,8.3-1.05,13.76,5.26,15.29,10.88,.41,1.49,1.12,2.29,2.5,2.98,5.22,2.62,7.77,7.05,7.85,12.84,.09,6.58,.04,13.17,0,19.75,0,1.08,.38,1.76,1.07,2.63,.97,1.21,1.89,2.87,1.92,4.36,.19,7.86,.19,15.72,0,23.58-.04,1.48-1.23,2.94-1.89,4.4-.36,.8-1.03,1.6-1.04,2.4-.09,6.65-.04,13.29-.05,19.94-.01,8.69-5.59,14.3-14.24,14.31-5.43,0-10.85,0-16.55,0Zm24.82-70.43c0-7.3,.03-14.27,0-21.23-.02-4.66-3.47-8.08-8.16-8.08-46.86-.03-93.72-.04-140.58-.04-5.08,0-7.94,2.91-7.94,7.99,0,25.95,0,51.9,0,77.86,0,5.03,2.91,7.95,7.97,7.97,6.46,.02,12.92-.08,19.37,.05,1.98,.04,2.98-.51,3.86-2.39,10.11-21.8,34.11-34.46,57.67-30.17,18.56,3.39,31.93,13.84,40.06,30.89,.59,1.23,1.23,1.67,2.58,1.65,5.82-.07,11.64,0,17.45-.04,4.8-.03,7.72-3,7.74-7.81,.02-6.52,0-13.04,0-19.56,0-.62-.06-1.23-.11-2-.99,0-1.81,0-2.63,0-15.85,0-31.71,0-47.56,0-4.1,0-6.22-2.03-6.24-6.06-.04-7.61,0-15.21-.02-22.82,0-2.02,.35-3.99,2.21-4.99,1.33-.72,3-1.15,4.51-1.16,15.79-.08,31.58-.05,47.37-.05,.75,0,1.5,0,2.47,0Zm-76.73,37.08c-26.5-.02-48.06,21.51-48.08,47.99-.01,26.34,21.6,47.99,47.91,47.98,26.51,0,48.05-21.52,48.08-48.01,.03-26.35-21.55-47.95-47.91-47.97Zm35.34-28.8c-5.28-.02-9.39,4.02-9.41,9.24-.02,5.12,4.07,9.29,9.15,9.33,5.22,.04,9.41-4.08,9.42-9.26,.01-5.14-4.06-9.28-9.16-9.3Z"/><path d="M85.98,89.14c24.1,0,43.59,19.53,43.58,43.66-.02,24.33-19.54,43.77-43.91,43.73-23.97-.04-43.49-19.61-43.48-43.58,.01-24.4,19.43-43.8,43.82-43.8Zm0,5.86c-20.69-.18-37.66,16.6-37.9,37.46-.24,20.95,16.54,37.98,37.57,38.14,20.88,.16,37.81-16.56,38-37.52,.19-20.94-16.59-37.9-37.67-38.08Z"/><path d="M107.85,134.98c-4.96,2.93-9.68,5.73-14.4,8.52-1.48,.88-3.08,1.61-4.43,2.66-2.16,1.69-3.97,1.56-6.3,.07-5.53-3.54-11.28-6.75-16.94-10.1-.6-.35-1.17-.74-1.9-1.2,7.3-12.1,14.55-24.1,21.97-36.39,7.4,12.26,14.64,24.25,22,36.45Zm-6.02-1.51c-5.37-8.89-10.59-17.52-15.99-26.45-5.47,9.06-10.67,17.68-15.95,26.44,5.22,3.09,10.27,6.08,15.34,9.03,.31,.18,.91,.19,1.21,.01,5.07-2.94,10.13-5.93,15.39-9.03Z"/><path d="M106.9,138.99c-6.94,9.3-13.88,18.59-21.03,28.17-7.09-9.5-14.07-18.85-21.06-28.2l.28-.35c.86,.47,1.73,.92,2.59,1.41,5.56,3.12,11.15,6.21,16.66,9.41,1.17,.68,2.01,.6,3.12-.04,5.81-3.33,11.66-6.59,17.5-9.87,.54-.3,1.1-.56,1.65-.84l.29,.32Zm-15.97,14.07l-.26-.73c-3.21,3.26-6.43,3.03-9.66,.03l-.21,.67c1.63,2.19,3.27,4.37,5.07,6.79,1.82-2.43,3.44-4.59,5.06-6.76Z"/></g></g></g></g></svg>