<?xml version="1.0" encoding="UTF-8"?><svg xmlns="http://www.w3.org/2000/svg" viewBox="0 0 100.02 183.53"><g id="a"/><g id="b"><g id="c"><g id="d"><g><path d="M80,91.79c0,14.79-.01,29.58,.02,44.37,0,1.28-.32,2.07-1.44,2.9-9.14,6.88-18.21,13.87-27.27,20.87-.92,.71-1.58,.8-2.55,.05-9.2-7.09-18.45-14.11-27.63-21.21-.6-.46-1.08-1.48-1.08-2.25-.05-29.84-.06-59.69,0-89.53,0-.78,.61-1.81,1.26-2.31,9.05-7.02,18.17-13.95,27.23-20.95,1.05-.82,1.75-.9,2.86-.05,8.98,6.94,18,13.83,27.06,20.66,1.21,.91,1.57,1.84,1.56,3.28-.05,14.72-.03,29.45-.03,44.18Zm-9.43-16.76c-1.09-1.3-1.84-2.53-2.89-3.39-8.62-7.09-17.29-14.11-25.96-21.14-2.09-1.7-4.15-3.43-6.3-5.04-1.71-1.28-3.46-1.02-4.7,.5-1.17,1.44-1,3.07,.5,4.53,.42,.41,.88,.79,1.33,1.17,7.59,6.17,15.17,12.34,22.77,18.5,3.11,2.52,6.16,5.12,9.41,7.44,.83,.59,2.44,.66,3.43,.28,.9-.35,1.44-1.64,2.4-2.84Zm-.59-20.74c-.46-.57-1.12-1.72-2.06-2.51-4.97-4.19-10-8.3-15.04-12.4-.64-.52-1.41-1.05-2.2-1.21-1.55-.33-2.87,.18-3.61,1.71-.75,1.54-.26,3.16,1.37,4.5,4.81,3.96,9.62,7.92,14.45,11.87,.81,.66,1.63,1.37,2.56,1.79,2.16,.97,4.56-.71,4.53-3.74Z"/><path d="M0,38.28c4.41,2.52,8.64,4.87,12.77,7.38,.44,.27,.51,1.39,.51,2.12,.02,28.08-.09,56.16,.14,84.24,.04,4.32-1.03,6.89-5.04,8.54-2.87,1.19-5.46,3.03-8.39,4.7V38.28Z"/><path d="M100.02,38.36v106.92c-2.98-1.7-5.61-3.61-8.54-4.79-4.03-1.62-4.93-4.22-4.9-8.42,.22-28.08,.12-56.16,.08-84.23,0-1.43,.39-2.24,1.67-2.92,3.36-1.79,6.63-3.75,9.94-5.64,.53-.3,1.09-.57,1.75-.91Z"/><path d="M96.24,32.76c-4.03,2.3-7.77,4.48-11.57,6.55-.51,.28-1.55,.2-2.01-.15-9.43-7.12-18.82-14.3-28.19-21.49-.48-.37-1.09-.98-1.09-1.48-.08-5.23-.05-10.46-.05-16.18,14.49,11.06,28.61,21.83,42.92,32.75Z"/><path d="M96.23,150.78c-14.29,10.91-28.41,21.68-42.92,32.75,0-3.67,.33-6.91-.08-10.04-.65-4.99,1.21-8.09,5.35-10.96,8.09-5.6,15.75-11.82,23.54-17.84,1.07-.83,1.84-1.02,3.08-.27,3.52,2.15,7.15,4.14,11.03,6.35Z"/><path d="M3.77,32.76C18.05,21.86,32.17,11.09,46.69,0c0,3.19,.02,5.92,0,8.65-.02,2.69,.73,5.77-.34,7.95-1.07,2.18-3.94,3.49-6.07,5.12-7.51,5.75-15.05,11.44-22.52,17.23-1.08,.83-1.8,.84-2.92,.17-3.59-2.15-7.25-4.18-11.05-6.36Z"/><path d="M3.77,150.78c4.03-2.3,7.83-4.52,11.68-6.62,.46-.25,1.42-.15,1.85,.18,9.48,7.17,18.92,14.38,28.34,21.62,.47,.36,.99,1.01,1,1.53,.07,5.17,.04,10.34,.04,16.04-14.47-11.04-28.57-21.8-42.92-32.74Z"/></g></g></g></g></svg>