<?xml version="1.0" encoding="UTF-8"?><svg xmlns="http://www.w3.org/2000/svg" viewBox="0 0 159.59 149.99"><g id="a"/><g id="b"><g id="c"><g id="d"><g><path d="M60.7,149.99v-12.64h16.47c.06-.96,.14-1.61,.14-2.25,0-8.92-.05-17.83,.05-26.74,.02-1.73-.61-2.52-2.11-3.12-11.35-4.51-22.68-9.06-34.01-13.61-8.02-3.22-16.04-6.43-24.02-9.74-.65-.27-1.41-1.25-1.42-1.91-.12-4.57-.07-9.15-.07-13.92H159.59v19.36c-3.17,.32-6.38,.5-9.55,1-13.89,2.18-25.36,8.58-33.99,19.8-.62,.8-1.15,1.92-1.16,2.89-.09,9-.05,18-.04,26.99,0,.31,.1,.63,.19,1.14h14.63v12.75H60.7Z"/><path d="M69.92,29.62c-3.72-8.69-1.52-17.49-1.04-26.23,.03-.62,.86-1.53,1.5-1.73,2.29-.7,4.65-1.25,7.02-1.65,.6-.1,1.67,.36,1.95,.87,3.85,7,9.28,13.27,10.29,21.62,.2,1.68,.63,2.88,2.84,2.27,.51-.14,1.78,.82,1.98,1.49,.84,2.86,1.44,5.79,2.07,8.71,.56,2.56-1.86,1.94-3.29,2.9l2.7,12.22c-6.86,1.59-13.47,3.11-20.38,4.71-1-4.13-1.97-8.2-2.99-12.41-7.73,1.76-15.32,3.47-22.9,5.23-14.63,3.38-29.26,6.79-43.89,10.17-3.11,.72-3.26,.6-4-2.56-.54-2.26-.91-4.57-1.59-6.78-.57-1.86,.16-2.63,1.83-3.01,13.1-3.01,26.21-6.02,39.31-9.03,8.89-2.04,17.79-4.08,26.68-6.13,.48-.11,.94-.32,1.91-.65Z"/></g></g></g></g></svg>