<?xml version="1.0" encoding="UTF-8"?><svg xmlns="http://www.w3.org/2000/svg" viewBox="0 0 901.85 156.9"><g id="a"/><g id="b"><g id="c"><g><g><path d="M0,7.41C0,4.58,2.18,2.18,5.23,2.18H24.41c2.83,0,5.23,2.4,5.23,5.23v58.84L84.55,4.36c.87-1.09,2.18-2.18,4.14-2.18h21.79c4.14,0,6.32,4.58,3.49,7.85L57.1,74.09l61.02,73c2.18,2.83,.44,7.63-3.92,7.63h-23.75c-2.18,0-3.49-.87-3.92-1.52L29.64,83.03v66.47c0,2.83-2.4,5.23-5.23,5.23H5.23c-3.05,0-5.23-2.4-5.23-5.23V7.41Z"/><path d="M201.36,0c43.58,0,78.45,35.08,78.45,78.67s-34.87,78.23-78.45,78.23-78.23-34.65-78.23-78.23S157.78,0,201.36,0Zm0,128.57c27.46,0,50.12-22.45,50.12-49.9s-22.66-50.34-50.12-50.34-49.9,22.88-49.9,50.34,22.45,49.9,49.9,49.9Z"/><path d="M308.36,3.92c0-2.18,1.96-3.92,4.14-3.92h5.45l90.65,96.32h.22V6.32c0-2.18,1.74-4.14,4.14-4.14h20.05c2.18,0,4.14,1.96,4.14,4.14V152.98c0,2.18-1.96,3.92-4.14,3.92h-5.23l-91.09-100.03h-.22v93.71c0,2.18-1.74,4.14-4.14,4.14h-19.83c-2.18,0-4.14-1.96-4.14-4.14V3.92Z"/><path d="M472.45,6.32c0-2.18,1.74-4.14,3.92-4.14h51.65c42.06,0,76.49,34.21,76.49,76.05s-34.43,76.49-76.49,76.49h-51.65c-2.18,0-3.92-1.96-3.92-4.14V6.32Zm52.95,121.82c28.33,0,49.03-21.35,49.03-49.9s-20.7-49.68-49.03-49.68h-24.84v99.59h24.84Z"/><path d="M626.74,6.32c0-2.18,1.96-4.14,4.14-4.14h20.7c2.4,0,4.14,1.96,4.14,4.14V95.45c0,18.52,12.64,33.12,31.6,33.12s31.82-14.6,31.82-32.91V6.32c0-2.18,1.74-4.14,4.14-4.14h20.7c2.18,0,4.14,1.96,4.14,4.14V96.97c0,33.12-26.37,59.93-60.8,59.93s-60.58-26.81-60.58-59.93V6.32Z"/></g><path d="M855.85,76.49l43.8-68.21c1.74-2.83,0-6.1-3.7-6.1h-8.16l-28.46,44.48c.63,.81,1.08,1.78,1.22,2.87,.44,3.31-1.89,6.34-5.19,6.78-3.31,.44-6.34-1.89-6.78-5.19s1.89-6.34,5.19-6.78c.56-.07,1.11-.04,1.64,.03l27-42.19h-11.74c-1.74,0-3.05,1.09-3.49,1.96l-28.33,46.2h-.22l-27.89-46.2c-.65-.87-1.74-1.96-3.49-1.96h-25.28c-3.7,0-5.45,3.27-3.7,6.1l43.58,68.21-45.33,72.13c-1.74,2.83,0,6.1,3.92,6.1h23.53c1.74,0,3.05-1.09,3.7-1.96l30.73-49.9h.65l31.16,49.9c.44,.87,1.96,1.96,3.7,1.96h12.06l-77.77-121.05c-3.19,.26-6.05-2-6.48-5.2-.44-3.31,1.89-6.34,5.19-6.78s6.34,1.89,6.78,5.19c.21,1.58-.22,3.08-1.08,4.29l79.38,123.56h5.44c3.7,0,5.45-3.05,3.7-6.1l-45.33-72.13Z"/></g></g></g></svg>