<?xml version="1.0" encoding="UTF-8"?><svg xmlns="http://www.w3.org/2000/svg" viewBox="0 0 126.01 152.54"><g id="a"/><g id="b"><g id="c"><path d="M80,74.31L123.8,6.1c1.74-2.83,0-6.1-3.7-6.1h-8.16l-28.46,44.48c.63,.81,1.08,1.78,1.22,2.87,.44,3.31-1.89,6.34-5.19,6.78s-6.34-1.89-6.78-5.19,1.89-6.34,5.19-6.78c.56-.07,1.11-.04,1.64,.03L106.56,0h-11.74c-1.74,0-3.05,1.09-3.49,1.96l-28.33,46.2h-.22L34.89,1.96c-.65-.87-1.74-1.96-3.49-1.96H6.12C2.42,0,.68,3.27,2.42,6.1L46,74.31,.68,146.44c-1.74,2.83,0,6.1,3.92,6.1H28.13c1.74,0,3.05-1.09,3.7-1.96l30.73-49.9h.65l31.16,49.9c.44,.87,1.96,1.96,3.7,1.96h12.06L32.38,31.49c-3.19,.26-6.05-2-6.48-5.2-.44-3.31,1.89-6.34,5.19-6.78s6.34,1.89,6.78,5.19c.21,1.58-.22,3.08-1.08,4.29l79.38,123.56h5.44c3.7,0,5.45-3.05,3.7-6.1l-45.33-72.13Z"/></g></g></svg>