<svg xmlns="http://www.w3.org/2000/svg" viewBox="0 0 332.8 402.89"><defs><style>.cls-1{isolation:isolate;}.cls-2{fill:#fff;mix-blend-mode:lighten;}</style></defs><g class="cls-1"><g id="Layer_2" data-name="Layer 2"><g id="Layer_1-2" data-name="Layer 1"><path class="cls-2" d="M211.29,196.26,327,16.12C331.58,8.64,327,0,317.19,0H295.64L220.46,117.47a15.78,15.78,0,0,1,3.23,7.59,16,16,0,1,1-17.92-13.72,15.71,15.71,0,0,1,4.34.09L281.43,0h-31a10.62,10.62,0,0,0-9.21,5.18l-74.82,122h-.57L92.15,5.18C90.42,2.88,87.54,0,82.94,0H16.17C6.39,0,1.78,8.64,6.39,16.12L121.5,196.26,1.78,386.77c-4.6,7.49,0,16.12,10.37,16.12H74.3a12.62,12.62,0,0,0,9.79-5.18l81.15-131.8H167l82.3,131.8c1.15,2.3,5.18,5.18,9.79,5.18h31.86L85.52,83.17a16,16,0,1,1,11.67-6.62L306.84,402.89h14.38c9.78,0,14.38-8.06,9.78-16.12Z"/></g></g></g></svg>