<?xml version="1.0" encoding="UTF-8"?><svg xmlns="http://www.w3.org/2000/svg" viewBox="0 0 154.98 127.14"><g id="a"/><g id="b"><g id="c"><g id="d"><g><path d="M154.98,0V127.14H0V0H154.98ZM30.05,63.67c2.67,27.36,17.55,42.93,44.53,47.21v5.35h-10.82v5.44h27.47v-5.51h-10.81v-5.6c12.38-1.08,22.93-5.86,31.35-14.83,8.4-8.95,12.57-19.75,12.81-32.05h19.46v10.8h5.37v-27.41h-5.5v10.97c-6.12,0-11.98-.05-17.84,.03-1.47,.02-2.01-.37-2.23-1.89-2.79-19.2-18.35-35.22-37.47-38.69-2-.36-4.01-.65-6-.97v-5.59h10.82V5.5h-27.47v5.51h10.8v5.39c-24.54,3.57-39.22,17.24-43.98,41.55H10.96v-10.86H5.56v27.36h5.47v-10.78H30.05Zm86.31,55.18h33.04v-16.37h-33.04v16.37ZM21.95,21.96V5.56H5.56V21.96H21.95ZM149.42,5.57h-33.05v5.22h33.05V5.57Zm-27.45,16.36h27.45v-5.33h-27.45v5.33ZM22.12,110.57h5.38v-5.29h-5.38v5.29Zm-10.97-5.32v5.27h5.19v-5.27h-5.19Zm22.03,5.27h5.36v-5.24h-5.36v5.24Zm-11.24,11.16v-5.36h-5.31v5.36h5.31Zm-16.41-.03h5.34v-5.34H5.53v5.34Zm27.43,0v-5.31h-5.21v5.31h5.21Zm11.16-5.33h-5.25v5.3h5.25v-5.3Z"/><path d="M80.28,104.71v-35.43h-5.56v35.46c-18.15-.3-38.6-16.47-38.76-41.1h33.08v-5.59H36.45c2.34-19.8,19.77-35.07,38.19-35.64v29.98h5.56V22.51c15.6-.18,35.6,13.44,38.3,35.54h-32.6v5.45h32.94c.7,21.88-18.23,40.88-38.56,41.2Z"/><path d="M121.86,113.3v-5.27h22.03v5.27h-22.03Z"/><path d="M11.09,11.02h5.3v5.33h-5.3v-5.33Z"/></g></g></g></g></svg>