<?xml version="1.0" encoding="UTF-8"?><svg xmlns="http://www.w3.org/2000/svg" viewBox="0 0 124.91 110.28"><g id="a"/><g id="b"><g id="c"><g id="d"><g><path d="M101.12,50.07c2.63,1.08,5.18,2.08,7.67,3.21,.37,.17,.69,.9,.69,1.38,.05,6.04,.03,12.09,.03,18.13,0,10.82,0,21.65,0,32.47,0,3.46-1.5,4.98-4.93,4.98-28.11,0-56.21-.03-84.32,.04-3.59,0-5.12-2.38-5.11-5.09,.06-16.68,.05-33.36,0-50.04,0-1.33,.42-1.75,1.66-2.15,2.32-.76,4.53-1.89,6.88-2.9,0,.28,0,.77,0,1.25,0,8.25,.03,16.49-.03,24.74,0,1.26,.37,1.56,1.59,1.56,24.73-.03,49.47-.04,74.2,0,1.38,0,1.71-.41,1.7-1.74-.06-8.2-.03-16.4-.03-24.6,0-.5,0-1,0-1.24Z"/><path d="M99.93,34c-.6,3.56-2.37,6.79-5.8,8.95-2.56,1.61-5.36,2.09-8.34,1.76-5.37-.58-9.75-5.05-10.67-11.23-1.98,8.03-6.74,12.17-14.96,11.11-5.26-.68-8.8-4.76-10.14-11.07-1.83,7.71-6.34,11.81-14.34,11.16-5.17-.42-8.83-4.16-10.74-10.86-.17,.46-.3,.71-.35,.98-1.24,6.08-6.65,10.31-12.78,9.98C5.53,44.46,.53,39.71,0,33.52c-.05-.57,.2-1.32,.59-1.73,5.26-5.73,10.55-11.42,15.9-17.07,.44-.46,1.29-.73,1.96-.73,24.31-.04,48.62-.03,72.94-.03,5.06,0,10.12-.03,15.18,.04,.69,0,1.57,.37,2.04,.87,5.25,5.54,10.46,11.13,15.62,16.75,.44,.48,.71,1.32,.69,1.97-.16,4.78-4.05,9.45-8.89,10.79-5.13,1.43-10.74-.49-13.59-4.91-1.11-1.72-1.73-3.76-2.49-5.47Z"/><path d="M15.21,8.71c0-1.59-.08-3.18,.02-4.75C15.37,1.86,17.03-.01,20.11,0c15.26,.07,30.52,.03,45.79,.03,12.73,0,25.47,0,38.2,0,.75,0,1.51-.03,2.24,.11,1.62,.31,3.04,1.89,3.12,3.55,.08,1.63,.02,3.27,.02,5.02H15.21Z"/></g></g></g></g></svg>